<svg xmlns:xlink="http://www.w3.org/1999/xlink" xmlns="http://www.w3.org/2000/svg" version="1.1" x="0" y="0" width="40px" height="4178px" viewBox="0 0 40 4178" preserveAspectRatio="none">
<g xmlns="http://www.w3.org/2000/svg" transform="translate(0,0)"><path fill="#000000" fill-rule="evenodd" d="M0,0 L0,1 L6,7 L6,12 L8,11 L8,7 L14,1 L14,0 L0,0 Z M4,3 L10,3 L7,6 L4,3 Z" transform="translate(2 3)"/>
</g>
<g xmlns="http://www.w3.org/2000/svg" transform="translate(18,18)"><path fill="#000000" fill-rule="evenodd" d="M0,8.75 L9.01409691,13 L9.01409691,11 L8,10.5 L8,5.5 L9,5 L9.01409691,3 L0,7.25 L0,8.75 Z M2,8 L6.02,6.13 L6.02,9.87 L2,8 Z M10,3 L12,3 L12,15 L14,15 L14,3 L16,3 L13,0 L10,3 Z" transform="translate(1 1)"/>
</g>
<g xmlns="http://www.w3.org/2000/svg" transform="translate(18,0)"><path fill="#000000" fill-rule="evenodd" d="M16,6.25 L6.98590309,2 L6.98590309,4 L8,4.5 L8,9.5 L7,10 L6.98590309,12 L16,7.75 L16,6.25 Z M14,7 L9.98,8.87 L9.98,5.13 L14,7 Z M6,12 L4,12 L4,1.77635684e-15 L2,1.77635684e-15 L2,12 L8.8817842e-16,12 L3,15 L6,12 Z" transform="translate(1 1)"/>
</g>
<g xmlns="http://www.w3.org/2000/svg" transform="translate(0,18)"><polygon fill="#80868b" fill-rule="evenodd" points="0 0 4 4 8 0" transform="translate(5 7)" class="__web-inspector-hide-shortcut__"/>
</g>
</svg>